<?xml version="1.0" encoding="UTF-8"?>
<svg width="72px" height="67px" viewBox="0 0 72 67" version="1.1" xmlns="http://www.w3.org/2000/svg" xmlns:xlink="http://www.w3.org/1999/xlink">
    <!-- Generator: Sketch 48.1 (47250) - http://www.bohemiancoding.com/sketch -->
    <title>icon-failed</title>
    <desc>Created with Sketch.</desc>
    <defs></defs>
    <g id="NOTIFY" stroke="none" stroke-width="1" fill="none" fill-rule="evenodd" transform="translate(-124.000000, -397.000000)">
        <g id="Group-3-Copy" transform="translate(58.000000, 397.000000)">
            <g id="icon-failed" transform="translate(66.000000, 0.000000)">
                <path d="M40.5651826,10.3739912 L62.7985804,10.3739912 C64.2273435,10.3739912 65.3857778,11.5324255 65.3857778,12.9611886 C65.3857778,14.3899517 64.2273435,15.5483859 62.7985804,15.5483859 L53.4117545,15.5483859 C52.3029978,15.8404333 51.4852604,16.8500236 51.4852604,18.0504387 C51.4852604,19.2509444 52.3031211,20.2605964 53.4120053,20.5525576 L55.7420563,20.5525576 C57.1709845,20.5525576 58.3292536,21.7108267 58.3292536,23.139755 C58.3292536,24.5685181 57.1709845,25.7269523 55.7420563,25.7269523 L55.6842033,25.7269523 C54.5754839,26.0189997 53.7578631,27.02859 53.7578631,28.2290052 C53.7578631,29.4293976 54.5754531,30.4389725 55.6841406,30.7310415 L69.2389134,30.7310415 C70.6676765,30.7310415 71.8261107,31.8894757 71.8261107,33.3182388 C71.8261107,34.747167 70.6676765,35.9054362 69.7343236,35.9054362 L62.6429638,35.9054362 C62.6769103,35.9060127 62.7099047,35.9094577 62.7435899,35.9109682 C61.3661843,35.9690964 60.2665388,37.1007785 60.2665388,38.4925509 C60.2665388,39.8843234 61.3661843,41.0160055 62.7435899,41.0741336 C62.7067644,41.075785 62.6707646,41.0797483 62.6334437,41.0797483 C64.0622068,41.0797483 65.220641,42.2380174 65.220641,43.6667805 C65.220641,45.0955436 64.0622068,46.2539778 62.6334437,46.2539778 L57.0276623,46.2539778 C55.5988992,46.2539778 54.440465,47.4124121 54.440465,48.8411752 C54.440465,50.2699383 55.5988992,51.4282074 57.0276623,51.4282074 L56.8536577,51.4282074 C58.2824208,51.4282074 59.4408551,52.5866416 59.4408551,54.0154047 C59.4408551,55.4441678 58.2824208,56.602602 56.8536577,56.602602 L47.8922482,56.602602 C46.4634851,56.602602 45.305216,57.7608712 45.305216,59.1896343 C45.305216,60.6185625 46.4634851,61.7768316 47.8922482,61.7768316 L47.9362736,61.7768316 C49.3650367,61.7768316 50.523471,62.9352658 50.523471,64.3640289 C50.523471,65.792792 49.3650367,66.9510611 47.9362736,66.9510611 L20.9090036,66.9510611 C19.4800753,66.9510611 18.3218062,65.792792 18.3218062,64.3640289 C18.3218062,62.9352658 19.4800753,61.7768316 20.9090036,61.7768316 L20.853914,61.7768316 C22.2826771,61.7768316 23.4411113,60.6185625 23.4411113,59.1896343 C23.4411113,57.7608712 22.2826771,56.602602 20.853914,56.602602 L11.661346,56.602602 C10.2324178,56.602602 9.07414867,55.4441678 9.07414867,54.0154047 C9.07414867,52.5866416 10.2324178,51.4282074 11.661346,51.4282074 L11.1866935,51.4282074 C12.6156217,51.4282074 13.7738908,50.2699383 13.7738908,48.8411752 C13.7738908,47.4124121 12.6156217,46.2539778 11.1866935,46.2539778 L6.87238048,46.2539778 C5.44345225,46.2539778 4.28518314,45.0955436 4.28518314,43.6667805 C4.28518314,42.2380174 5.44345225,41.0797483 6.87238048,41.0797483 L11.5976032,41.0797483 C13.0263663,41.0797483 14.1846354,39.921314 14.1846354,38.4925509 C14.1846354,37.0637878 13.0263663,35.9053536 11.5976032,35.9053536 L11.7983786,35.9053536 C9.89087254,35.8941304 8.74387518,34.7401972 8.74387518,33.3182388 C8.74387518,31.8894757 9.90214429,30.7310415 11.3310725,30.7310415 L11.343606,30.7310415 C12.4523769,30.4389725 13.2699669,29.4293976 13.2699669,28.2290052 C13.2699669,27.02859 12.4523461,26.0189997 11.3435287,25.7269523 L3.89985306,25.7269523 C2.47108997,25.7269523 1.31265572,24.5685181 1.31265572,23.139755 C1.31265572,21.7108267 2.47108997,20.5525576 3.89985306,20.5525576 L15.5253078,20.5525576 C16.6341548,20.2605964 17.4518989,19.2509444 17.4518989,18.0504387 C17.4518989,16.8500236 16.6342781,15.8404333 15.5255586,15.5483859 L13.1475767,15.5483859 C11.7186485,15.5483859 10.5603793,14.3899517 10.5603793,12.9611886 C10.5603793,11.5324255 11.7186485,10.3739912 13.1475767,10.3739912 L23.827909,10.3739912 C25.2470577,10.362768 26.3942186,9.20883484 26.3942186,7.78687645 C26.3942186,6.3679709 25.2517142,5.21567688 23.836555,5.19984424 L21.3326784,5.19984424 C19.9037502,5.19984424 18.7454811,4.04140999 18.7454811,2.6126469 C18.7454811,1.18371867 19.9037502,0.0254495572 21.3326784,0.0254495572 L45.8130445,0.0254495572 C47.2418076,0.0254495572 48.4002418,1.18371867 48.4002418,2.6126469 C48.4002418,4.04140999 47.2418076,5.19984424 45.8130445,5.19984424 L40.5565365,5.19984424 C39.1413797,5.21567688 37.9990381,6.3679709 37.9990381,7.78687645 C37.9990381,9.20883484 39.1460354,10.362768 40.5651826,10.3739912 Z M58.8435224,4.63887473 C58.8435224,6.06763782 57.6850882,7.22607207 56.2563251,7.22607207 L54.4479126,7.22607207 C53.0189844,7.22607207 51.8608804,6.06763782 51.8608804,4.63887473 C51.8608804,3.21011163 53.0189844,2.05167739 54.4479126,2.05167739 L56.2563251,2.05167739 C57.6850882,2.05167739 58.8435224,3.21011163 58.8435224,4.63887473 Z M7.15669641,12.9611886 C7.15669641,14.3899517 5.9984273,15.5483859 4.56949907,15.5483859 L2.7610866,15.5483859 C1.33215837,15.5483859 0.173889262,14.3899517 0.173889262,12.9611886 C0.173889262,11.5324255 1.33215837,10.3739912 2.7610866,10.3739912 L4.56949907,10.3739912 C5.9984273,10.3739912 7.15669641,11.5324255 7.15669641,12.9611886 Z M68.9752396,53.158279 C68.9752396,54.5870421 67.8168053,55.7453112 66.3880422,55.7453112 L64.5796298,55.7453112 C63.1507015,55.7453112 61.9924324,54.5870421 61.9924324,53.158279 C61.9924324,51.7295159 63.1507015,50.5710816 64.5796298,50.5710816 L66.3880422,50.5710816 C67.8168053,50.5710816 68.9752396,51.7295159 68.9752396,53.158279 Z M10.6480339,60.9197058 C10.6480339,62.3484689 9.48976482,63.5067381 8.06083659,63.5067381 L6.25242412,63.5067381 C4.82349589,63.5067381 3.66522678,62.3484689 3.66522678,60.9197058 C3.66522678,59.4909428 4.82349589,58.3325085 6.25242412,58.3325085 L8.06083659,58.3325085 C9.48976482,58.3325085 10.6480339,59.4909428 10.6480339,60.9197058 Z" id="Combined-Shape" fill="#EDEDED"></path>
                <path d="M36,9.48130601 C22.7421622,9.48130601 11.9930507,20.2304176 11.9930507,33.4882553 C11.9930507,46.7460931 22.7421622,57.4952047 36,57.4952047 C49.2578378,57.4952047 60.0069493,46.7460931 60.0069493,33.4882553 C60.0069493,20.2304176 49.2578378,9.48130601 36,9.48130601 Z" id="Path" fill="#FFD200"></path>
                <path d="M34.6195509,34.7306596 L34.2179657,28.719431 C34.1426681,27.548135 34.1050198,26.7073244 34.1050198,26.196974 C34.1050198,25.5025628 34.2869863,24.9608465 34.6509247,24.5718088 C35.0148631,24.1827712 35.4938323,23.9882553 36.0878468,23.9882553 C36.8073572,23.9882553 37.288418,24.237152 37.5310436,24.7349528 C37.7736692,25.2327537 37.8949802,25.9501617 37.8949802,26.8871985 C37.8949802,27.439381 37.8656982,27.9999214 37.8071334,28.5688366 L37.2675033,34.7557587 C37.2089385,35.4920019 37.0834444,36.0567254 36.8910172,36.4499462 C36.69859,36.843167 36.3806715,37.0397745 35.9372523,37.0397745 C35.4854667,37.0397745 35.1717314,36.8494418 34.996037,36.4687705 C34.8203426,36.0880993 34.6948485,35.5087348 34.6195509,34.7306596 Z M36.0125495,42.9882553 C35.5021991,42.9882553 35.056695,42.8230214 34.6760238,42.4925486 C34.2953526,42.1620758 34.1050198,41.6998391 34.1050198,41.1058247 C34.1050198,40.5871079 34.2869863,40.1457869 34.6509247,39.7818485 C35.0148631,39.4179101 35.4603672,39.2359436 35.9874505,39.2359436 C36.5145337,39.2359436 36.9642209,39.4179101 37.3365258,39.7818485 C37.7088306,40.1457869 37.8949802,40.5871079 37.8949802,41.1058247 C37.8949802,41.6914727 37.706739,42.1516178 37.330251,42.4862738 C36.953763,42.8209299 36.5145336,42.9882553 36.0125495,42.9882553 Z" id="!" fill="#FFFFFF"></path>
            </g>
        </g>
    </g>
</svg>